<svg xmlns="http://www.w3.org/2000/svg" viewBox="0 0 120 120" width="100%" height="100%">
  <!-- Fundo Circular Rosa Pastel Suave -->
  <circle cx="60" cy="60" r="54" fill="#FCE7F3" opacity="0.3" stroke="#DB2777" stroke-width="2"/>
  <!-- Desenho do Livro Aberto (Cinza Escuro) -->
  <path d="M60,82 C50,75 35,75 24,78 L24,43 C35,40 50,40 60,47 C70,40 85,40 96,43 L96,78 C85,75 70,75 60,82 Z" fill="none" stroke="#1E293B" stroke-width="2.5" stroke-linecap="round" stroke-linejoin="round"/>
  <path d="M60,47 L60,82" fill="none" stroke="#1E293B" stroke-width="2" stroke-linecap="round"/>
  <!-- Cruz Espiritual (Rosa Escuro / Accent) -->
  <path d="M60,35 L60,58 M52,42 L68,42" fill="none" stroke="#DB2777" stroke-width="3" stroke-linecap="round"/>
  <!-- Pomba da Paz Minimalista Estilizada (Branca com contorno Rosa Escuro) -->
  <path d="M60,62 C57,60 52,58 48,59 C44,60 40,64 43,68 C45,70 50,68 54,67 C50,72 45,74 41,72 C43,76 49,76 54,72 C51,77 46,80 43,79 C46,82 52,81 56,76 C59,72 61,68 62,64 Z" fill="#FFFFFF" stroke="#DB2777" stroke-width="1.5" stroke-linejoin="round"/>
</svg>
